<svg width="108" height="120" viewBox="0 0 108 120" fill="none" xmlns="http://www.w3.org/2000/svg">
<g clip-path="url(#clip0_5737_7124)">
<path d="M9.30664 93.2893L54.6896 116.383L98.3492 93.2893V2.98291H9.30664V93.2893Z" fill="white"/>
<path d="M99.2676 3.32764L8.38672 94.8979L55.4931 118.221L99.2676 95.817V3.32764Z" fill="#F2F3F2"/>
<path d="M6.31836 33.085V95.2424L7.92687 96.0467L53.3098 119.14L54.6886 119.83L56.0673 119.14L99.8418 96.0467L101.45 95.2424V-0.00439453H6.31836V33.085ZM9.30559 93.519V2.98284H98.463V93.519L54.6886 116.613L9.30559 93.519Z" fill="#DCDEDC"/>
<path d="M53.8853 4.47646C54.3448 4.47646 54.8044 4.47646 55.264 4.59135L53.8853 7.2339C51.8172 7.11901 49.9789 8.72752 49.864 10.7956C49.7491 12.8637 51.3576 14.702 53.4257 14.8169H53.8853C54.8044 14.8169 55.7236 14.4722 56.4129 13.8977L57.9065 16.4254C56.7576 17.2296 55.3789 17.6892 53.8853 17.6892C50.2087 17.8041 47.1065 15.0467 46.9916 11.3701C46.8767 7.69348 49.6342 4.59135 53.3108 4.47646H53.8853ZM58.5959 10.1062L60.3193 12.9786L58.5959 15.736L56.9874 12.9786H53.6555L55.3789 10.1062H58.5959ZM55.8384 9.0722C55.8384 8.61263 55.9533 8.15305 56.1831 7.80837C56.4129 7.46369 56.8725 7.11901 57.2172 6.88922L57.447 6.77433C57.9065 6.54454 58.0214 6.42965 58.0214 6.19986C58.0214 5.97007 57.6767 5.74029 57.447 5.74029C56.9874 5.74029 56.6427 5.97007 56.4129 6.42965L55.8384 5.85518C55.9533 5.62539 56.1831 5.39561 56.4129 5.16582C56.7576 4.93603 57.1023 4.93603 57.447 4.93603C57.7916 4.93603 58.2512 5.05092 58.481 5.28071C58.7108 5.5105 58.9406 5.85518 58.9406 6.19986C58.9406 6.77433 58.5959 7.2339 57.9065 7.46369L57.5619 7.69348C57.2172 7.92326 56.9874 8.03816 56.8725 8.38284H58.9406V9.1871L55.8384 9.0722ZM53.8853 23.4339L64.8002 17.2296V-0.00439453H42.8555V17.1148L53.8853 23.4339Z" fill="#FF492C"/>
<path d="M103.633 64.1064H4.13558L0.458984 72.149L4.13558 80.1916H103.633L107.195 72.149L103.633 64.1064Z" fill="#2690CE"/>
<path d="M36.3065 59.0739C35.3874 59.0739 34.587 58.9283 33.9053 58.6373C33.2082 58.3385 32.6759 57.9173 32.3082 57.3734C31.9329 56.8296 31.7453 56.1977 31.7453 55.4777V55.0985C31.7453 55.0373 31.7644 54.9875 31.8027 54.9492C31.8487 54.9109 31.8984 54.8917 31.9521 54.8917H33.9167C33.9704 54.8917 34.0202 54.9109 34.0661 54.9492C34.1044 54.9875 34.1236 55.0373 34.1236 55.0985V55.3513C34.1236 55.8109 34.338 56.1977 34.767 56.5117C35.1882 56.8334 35.7627 56.9943 36.4904 56.9943C37.0955 56.9943 37.5474 56.8641 37.8461 56.6036C38.1448 56.3432 38.2942 56.0253 38.2942 55.65C38.2942 55.3666 38.2023 55.133 38.0184 54.9492C37.8346 54.7577 37.5857 54.5892 37.2716 54.4436C36.9499 54.3058 36.4482 54.1105 35.7665 53.8577C34.9929 53.5896 34.338 53.3177 33.8019 53.0419C33.2733 52.7662 32.8253 52.3909 32.4576 51.916C32.0976 51.4411 31.9176 50.8513 31.9176 50.1466C31.9176 49.4573 32.0976 48.856 32.4576 48.3428C32.8099 47.8219 33.3002 47.4236 33.9282 47.1479C34.564 46.8722 35.2955 46.7343 36.1227 46.7343C36.9959 46.7343 37.7733 46.8913 38.455 47.2054C39.1367 47.5117 39.6729 47.9445 40.0636 48.5036C40.4465 49.0551 40.638 49.7024 40.638 50.4454V50.6981C40.638 50.7594 40.6189 50.8092 40.5806 50.8475C40.5346 50.8858 40.4848 50.9049 40.4312 50.9049H38.455C38.3938 50.9049 38.344 50.8858 38.3057 50.8475C38.2597 50.8092 38.2367 50.7594 38.2367 50.6981V50.5602C38.2367 50.0777 38.0414 49.6679 37.6508 49.3309C37.2525 48.9939 36.7087 48.8253 36.0193 48.8253C35.4755 48.8253 35.0542 48.9402 34.7555 49.17C34.4491 49.3922 34.2959 49.7062 34.2959 50.1122C34.2959 50.4032 34.384 50.6445 34.5602 50.836C34.744 51.0351 35.0082 51.2113 35.3529 51.3645C35.7053 51.5177 36.2491 51.7283 36.9844 51.9964C37.804 52.2951 38.4436 52.5594 38.9031 52.7892C39.3704 53.019 39.7916 53.3598 40.167 53.8117C40.5423 54.2636 40.7299 54.8534 40.7299 55.5811C40.7299 56.6611 40.3316 57.5113 39.535 58.1317C38.7461 58.7598 37.6699 59.0739 36.3065 59.0739ZM50.1167 53.5934C50.1857 54.03 50.2087 54.5164 50.1857 55.0526C50.1704 55.1981 50.0938 55.2709 49.9559 55.2709H44.6363C44.5674 55.2709 44.5444 55.2977 44.5674 55.3513C44.598 55.5811 44.6593 55.8109 44.7512 56.0407C45.0499 56.6841 45.6589 57.0058 46.578 57.0058C47.3133 56.9981 47.8955 56.6994 48.3244 56.1096C48.3704 56.0407 48.4201 56.0062 48.4738 56.0062C48.5121 56.0062 48.5542 56.0292 48.6002 56.0751L49.841 57.293C49.8946 57.3543 49.9214 57.4079 49.9214 57.4539C49.9214 57.4768 49.8984 57.5228 49.8525 57.5917C49.4772 58.0666 48.9908 58.4305 48.3933 58.6832C47.7959 58.9436 47.141 59.0739 46.4287 59.0739C45.4406 59.0739 44.6057 58.8517 43.924 58.4075C43.2346 57.9556 42.7406 57.3275 42.4419 56.5232C42.2044 55.9488 42.0857 55.1981 42.0857 54.2713C42.0857 53.6356 42.1699 53.0764 42.3384 52.5939C42.6065 51.7819 43.0699 51.1347 43.7287 50.6522C44.3874 50.1696 45.1725 49.9283 46.084 49.9283C47.2329 49.9283 48.1559 50.2615 48.8529 50.9279C49.5499 51.5943 49.9712 52.4828 50.1167 53.5934ZM46.0955 52.0309C45.3755 52.0309 44.9006 52.3679 44.6708 53.0419C44.6248 53.1951 44.5827 53.379 44.5444 53.5934C44.5444 53.6471 44.575 53.6739 44.6363 53.6739H47.6121C47.681 53.6739 47.704 53.6471 47.681 53.5934C47.6274 53.2641 47.6006 53.1032 47.6006 53.1109C47.4933 52.7662 47.3133 52.4981 47.0606 52.3066C46.8001 52.1228 46.4784 52.0309 46.0955 52.0309ZM56.5623 51.8241C56.5623 51.8777 56.5431 51.9236 56.5048 51.9619C56.4589 52.0079 56.4091 52.0309 56.3555 52.0309H54.701C54.6474 52.0309 54.6206 52.0577 54.6206 52.1113V55.7649C54.6206 56.1402 54.6972 56.4236 54.8504 56.6151C55.0036 56.799 55.2525 56.8909 55.5972 56.8909H56.1602C56.2214 56.8909 56.2712 56.91 56.3095 56.9483C56.3478 56.9866 56.367 57.0364 56.367 57.0977V58.7292C56.367 58.8594 56.298 58.9322 56.1602 58.9475C55.6776 58.9705 55.3329 58.9819 55.1261 58.9819C54.1763 58.9819 53.4678 58.8249 53.0006 58.5109C52.5257 58.1968 52.2806 57.6032 52.2653 56.73V52.1113C52.2653 52.0577 52.2384 52.0309 52.1848 52.0309H51.1967C51.1431 52.0309 51.0972 52.0079 51.0589 51.9619C51.0129 51.9236 50.9899 51.8777 50.9899 51.8241V50.2845C50.9899 50.2309 51.0129 50.1811 51.0589 50.1351C51.0972 50.0968 51.1431 50.0777 51.1967 50.0777H52.1848C52.2384 50.0777 52.2653 50.0471 52.2653 49.9858V47.9407C52.2653 47.8871 52.2882 47.8373 52.3342 47.7913C52.3725 47.753 52.4184 47.7339 52.4721 47.7339H54.4138C54.4674 47.7339 54.5133 47.753 54.5516 47.7913C54.5976 47.8373 54.6206 47.8871 54.6206 47.9407V49.9858C54.6206 50.0471 54.6474 50.0777 54.701 50.0777H56.3555C56.4091 50.0777 56.4589 50.0968 56.5048 50.1351C56.5431 50.1811 56.5623 50.2309 56.5623 50.2845V51.8241ZM63.1916 50.2845C63.1916 50.2309 63.2146 50.1811 63.2606 50.1351C63.2989 50.0968 63.3448 50.0777 63.3984 50.0777H65.4206C65.4742 50.0777 65.524 50.0968 65.5699 50.1351C65.6082 50.1811 65.6274 50.2309 65.6274 50.2845V58.7292C65.6274 58.7905 65.6082 58.8402 65.5699 58.8785C65.524 58.9168 65.4742 58.936 65.4206 58.936H63.3984C63.3448 58.936 63.2989 58.9168 63.2606 58.8785C63.2146 58.8402 63.1916 58.7905 63.1916 58.7292V58.1432C63.1916 58.1126 63.1802 58.0934 63.1572 58.0858C63.1342 58.0781 63.1112 58.0934 63.0882 58.1317C62.6287 58.7445 61.9163 59.0509 60.9512 59.0509C60.078 59.0509 59.3619 58.7905 58.8027 58.2696C58.2359 57.7411 57.9525 56.9981 57.9525 56.0407V50.2845C57.9525 50.2309 57.9755 50.1811 58.0214 50.1351C58.0597 50.0968 58.1057 50.0777 58.1593 50.0777H60.1585C60.2197 50.0777 60.2695 50.0968 60.3078 50.1351C60.3461 50.1811 60.3653 50.2309 60.3653 50.2845V55.4432C60.3653 55.9028 60.4916 56.2743 60.7444 56.5577C60.9895 56.8488 61.3304 56.9943 61.767 56.9943C62.1576 56.9943 62.4793 56.8756 62.7321 56.6381C62.9848 56.4007 63.138 56.0943 63.1916 55.719V50.2845ZM75.3244 52.456C75.5312 53.0381 75.6346 53.7275 75.6346 54.5241C75.6346 55.3207 75.5274 56.0407 75.3129 56.6841C75.0448 57.4194 74.6274 58.0015 74.0606 58.4305C73.4938 58.8594 72.7891 59.0739 71.9465 59.0739C71.1193 59.0739 70.4759 58.7866 70.0163 58.2122C69.9933 58.1815 69.9704 58.17 69.9474 58.1777C69.9244 58.1854 69.9129 58.2083 69.9129 58.2466V61.9347C69.9129 61.996 69.8938 62.0458 69.8555 62.0841C69.8172 62.1224 69.7674 62.1415 69.7061 62.1415H67.6955C67.6342 62.1415 67.5844 62.1224 67.5461 62.0841C67.5078 62.0458 67.4887 61.996 67.4887 61.9347V50.2845C67.4887 50.2309 67.5078 50.1811 67.5461 50.1351C67.5844 50.0968 67.6342 50.0777 67.6955 50.0777H69.7061C69.7674 50.0777 69.8172 50.0968 69.8555 50.1351C69.8938 50.1811 69.9129 50.2309 69.9129 50.2845V50.8475C69.9129 50.8858 69.9244 50.9088 69.9474 50.9164C69.9704 50.9241 69.9933 50.9164 70.0163 50.8934C70.4989 50.2577 71.1653 49.9398 72.0155 49.9398C72.8121 49.9398 73.5014 50.1619 74.0836 50.6062C74.658 51.0505 75.0716 51.6671 75.3244 52.456ZM72.6933 56.3164C72.9767 55.8722 73.1184 55.2632 73.1184 54.4896C73.1184 53.7696 72.9997 53.1951 72.7623 52.7662C72.4942 52.276 72.0691 52.0309 71.487 52.0309C70.9585 52.0309 70.5602 52.276 70.2921 52.7662C70.0546 53.1798 69.9359 53.7619 69.9359 54.5126C69.9359 55.2785 70.0623 55.876 70.315 56.3049C70.5755 56.7645 70.9661 56.9943 71.487 56.9943C72.0002 56.9943 72.4023 56.7683 72.6933 56.3164ZM34.3189 31.5109C34.3189 31.5722 34.2959 31.6219 34.2499 31.6602C34.2116 31.6985 34.1657 31.7177 34.1121 31.7177H28.4478C28.3942 31.7177 28.3674 31.7483 28.3674 31.8096V34.4751C28.3674 34.5364 28.3942 34.5671 28.4478 34.5671H32.1589C32.2125 34.5671 32.2623 34.5862 32.3082 34.6245C32.3465 34.6705 32.3657 34.7202 32.3657 34.7739V36.4398C32.3657 36.5011 32.3465 36.5509 32.3082 36.5892C32.2623 36.6351 32.2125 36.6581 32.1589 36.6581H28.4478C28.3942 36.6581 28.3674 36.6849 28.3674 36.7385V39.5305C28.3674 39.5917 28.3942 39.6224 28.4478 39.6224H34.1121C34.1657 39.6224 34.2116 39.6415 34.2499 39.6798C34.2959 39.7181 34.3189 39.7641 34.3189 39.8177V41.4951C34.3189 41.5564 34.2959 41.6062 34.2499 41.6445C34.2116 41.6828 34.1657 41.7019 34.1121 41.7019H26.1384C26.0848 41.7019 26.0389 41.6828 26.0006 41.6445C25.9546 41.6062 25.9316 41.5564 25.9316 41.4951V29.8449C25.9316 29.7913 25.9546 29.7415 26.0006 29.6956C26.0389 29.6573 26.0848 29.6381 26.1384 29.6381H34.1121C34.1657 29.6381 34.2116 29.6573 34.2499 29.6956C34.2959 29.7415 34.3189 29.7913 34.3189 29.8449V31.5109ZM39.3857 32.7058C40.1287 32.7058 40.795 32.836 41.3848 33.0964C41.967 33.3568 42.4227 33.7092 42.7521 34.1534C43.0738 34.6054 43.2346 35.1071 43.2346 35.6585V41.4951C43.2346 41.5564 43.2155 41.6062 43.1772 41.6445C43.1389 41.6828 43.0891 41.7019 43.0278 41.7019H41.0172C40.9559 41.7019 40.9061 41.6828 40.8678 41.6445C40.8295 41.6062 40.8104 41.5564 40.8104 41.4951V40.9322C40.8104 40.8939 40.7989 40.8709 40.7759 40.8632C40.7529 40.8479 40.7299 40.8594 40.707 40.8977C40.2244 41.5258 39.447 41.8398 38.3746 41.8398C37.4785 41.8398 36.7584 41.6215 36.2146 41.1849C35.6555 40.7483 35.3759 40.1049 35.3759 39.2547C35.3759 38.3739 35.6899 37.6883 36.318 37.1981C36.9308 36.7079 37.8116 36.4628 38.9606 36.4628H40.7299C40.7836 36.4628 40.8104 36.436 40.8104 36.3824V36.0032C40.8104 35.6202 40.6955 35.3215 40.4657 35.107C40.2359 34.9002 39.8912 34.7968 39.4316 34.7968C39.0793 34.7968 38.7844 34.8581 38.547 34.9807C38.3095 35.1109 38.1563 35.2909 38.0874 35.5207C38.0567 35.6432 37.9802 35.7007 37.8576 35.693L35.778 35.4173C35.6402 35.3943 35.575 35.3407 35.5827 35.2564C35.6363 34.7739 35.8316 34.3373 36.1687 33.9466C36.5057 33.556 36.9538 33.2534 37.5129 33.039C38.0644 32.8168 38.6887 32.7058 39.3857 32.7058ZM39.0295 40.036C39.5274 40.036 39.9487 39.9019 40.2933 39.6339C40.638 39.3658 40.8104 39.0249 40.8104 38.6113V37.9909C40.8104 37.9373 40.7836 37.9105 40.7299 37.9105H39.4891C38.9682 37.9105 38.5623 38.01 38.2712 38.2092C37.9802 38.4007 37.8346 38.6764 37.8346 39.0364C37.8346 39.3428 37.9419 39.5841 38.1563 39.7602C38.3708 39.9441 38.6619 40.036 39.0295 40.036ZM48.4853 41.8168C47.7116 41.8168 47.0376 41.7096 46.4631 41.4951C45.8887 41.2807 45.4444 40.9781 45.1304 40.5875C44.8087 40.1968 44.6478 39.7526 44.6478 39.2547V39.0824C44.6478 39.0288 44.6708 38.979 44.7167 38.933C44.755 38.8947 44.801 38.8756 44.8546 38.8756H46.7733C46.8346 38.8756 46.8844 38.8947 46.9227 38.933C46.961 38.979 46.9802 39.0288 46.9802 39.0824V39.0939C46.9802 39.3543 47.1219 39.5726 47.4053 39.7488C47.681 39.9249 48.0333 40.013 48.4623 40.013C48.8529 40.013 49.167 39.9364 49.4044 39.7832C49.6495 39.6224 49.7721 39.4309 49.7721 39.2088C49.7721 39.0019 49.6687 38.8449 49.4619 38.7377C49.255 38.6381 48.9142 38.5309 48.4393 38.416C47.9031 38.2781 47.478 38.1441 47.164 38.0139C46.4287 37.7611 45.8427 37.4509 45.4061 37.0832C44.9695 36.7156 44.7512 36.1871 44.7512 35.4977C44.7512 34.6475 45.0844 33.9734 45.7508 33.4756C46.4095 32.9777 47.2865 32.7288 48.3819 32.7288C49.1172 32.7288 49.7606 32.8436 50.3121 33.0734C50.8559 33.3109 51.281 33.6441 51.5874 34.073C51.8938 34.4943 52.047 34.9768 52.047 35.5207C52.047 35.5743 52.0278 35.6202 51.9895 35.6585C51.9512 35.6968 51.9014 35.716 51.8402 35.716H50.0019C49.9406 35.716 49.8908 35.6968 49.8525 35.6585C49.8142 35.6202 49.795 35.5743 49.795 35.5207C49.795 35.2679 49.6648 35.0534 49.4044 34.8773C49.144 34.7011 48.8031 34.613 48.3819 34.613C47.9989 34.613 47.6848 34.6858 47.4397 34.8313C47.2023 34.9692 47.0836 35.1568 47.0836 35.3943C47.0836 35.6241 47.2023 35.7964 47.4397 35.9113C47.6695 36.0262 48.064 36.1488 48.6231 36.279C48.7457 36.3096 48.8874 36.3441 49.0482 36.3824C49.2091 36.4207 49.3814 36.4705 49.5653 36.5317C50.3848 36.7768 51.0282 37.0871 51.4955 37.4624C51.9627 37.8454 52.1963 38.3968 52.1963 39.1168C52.1963 39.9671 51.8631 40.6296 51.1967 41.1045C50.5227 41.5794 49.6189 41.8168 48.4853 41.8168ZM54.9078 31.8441C54.5172 31.8441 54.1916 31.7139 53.9312 31.4534C53.6784 31.2007 53.5521 30.879 53.5521 30.4883C53.5521 30.0824 53.6784 29.753 53.9312 29.5002C54.184 29.2475 54.5095 29.1211 54.9078 29.1211C55.3138 29.1211 55.6393 29.2475 55.8844 29.5002C56.1448 29.753 56.275 30.0824 56.275 30.4883C56.275 30.879 56.1448 31.2007 55.8844 31.4534C55.624 31.7139 55.2985 31.8441 54.9078 31.8441ZM53.8738 41.7019C53.8202 41.7019 53.7704 41.6828 53.7244 41.6445C53.6861 41.6062 53.667 41.5564 53.667 41.4951V33.039C53.667 32.9777 53.6861 32.9279 53.7244 32.8896C53.7704 32.8513 53.8202 32.8322 53.8738 32.8322H55.8844C55.9457 32.8322 55.9955 32.8513 56.0338 32.8896C56.0721 32.9279 56.0912 32.9777 56.0912 33.039V41.4951C56.0912 41.5564 56.0721 41.6062 56.0338 41.6445C55.9955 41.6828 55.9457 41.7019 55.8844 41.7019H53.8738ZM65.8342 36.3594C65.9031 36.796 65.9261 37.2824 65.9031 37.8185C65.8955 37.9641 65.8227 38.0368 65.6848 38.0368H60.3538C60.2848 38.0368 60.2619 38.0636 60.2848 38.1173C60.3231 38.3471 60.3882 38.5768 60.4802 38.8066C60.7789 39.45 61.384 39.7717 62.2955 39.7717C63.0308 39.7641 63.6129 39.4654 64.0419 38.8756C64.0878 38.8066 64.1414 38.7722 64.2027 38.7722C64.2333 38.7722 64.2716 38.7951 64.3176 38.8411L65.5584 40.059C65.6197 40.1202 65.6504 40.1739 65.6504 40.2198C65.6504 40.2428 65.6236 40.2888 65.5699 40.3577C65.1946 40.8326 64.7082 41.1964 64.1108 41.4492C63.5133 41.7096 62.8584 41.8398 62.1461 41.8398C61.158 41.8398 60.3231 41.6177 59.6414 41.1734C58.9597 40.7215 58.4657 40.0934 58.1593 39.2892C57.9219 38.7147 57.8031 37.9641 57.8031 37.0373C57.8031 36.4015 57.8912 35.8424 58.0674 35.3598C58.3278 34.5479 58.7874 33.9007 59.4461 33.4181C60.1125 32.9356 60.8976 32.6943 61.8014 32.6943C62.9504 32.6943 63.8733 33.0275 64.5704 33.6939C65.2674 34.3602 65.6887 35.2488 65.8342 36.3594ZM61.8129 34.7968C61.0929 34.7968 60.618 35.1339 60.3882 35.8079C60.3423 35.9611 60.304 36.1449 60.2733 36.3594C60.2733 36.413 60.3001 36.4398 60.3538 36.4398H63.341C63.4023 36.4398 63.4214 36.413 63.3984 36.3594C63.3448 36.03 63.318 35.8692 63.318 35.8768C63.2108 35.5322 63.0308 35.2641 62.778 35.0726C62.5176 34.8888 62.1959 34.7968 61.8129 34.7968ZM70.8206 41.8168C70.047 41.8168 69.3729 41.7096 68.7985 41.4951C68.224 41.2807 67.7797 40.9781 67.4657 40.5875C67.1516 40.1968 66.9946 39.7526 66.9946 39.2547V39.0824C66.9946 39.0288 67.0138 38.979 67.0521 38.933C67.0904 38.8947 67.1402 38.8756 67.2014 38.8756H69.1087C69.1699 38.8756 69.2197 38.8947 69.258 38.933C69.2963 38.979 69.3155 39.0288 69.3155 39.0824V39.0939C69.3155 39.3543 69.4572 39.5726 69.7406 39.7488C70.024 39.9249 70.3763 40.013 70.7976 40.013C71.1882 40.013 71.5061 39.9364 71.7512 39.7832C71.9887 39.6224 72.1074 39.4309 72.1074 39.2088C72.1074 39.0019 72.004 38.8449 71.7972 38.7377C71.5904 38.6381 71.2533 38.5309 70.7861 38.416C70.2423 38.2781 69.8172 38.1441 69.5108 38.0139C68.7755 37.7611 68.1895 37.4509 67.7529 37.0832C67.3163 36.7156 67.098 36.1871 67.098 35.4977C67.098 34.6475 67.4274 33.9734 68.0861 33.4756C68.7448 32.9777 69.6219 32.7288 70.7172 32.7288C71.4525 32.7288 72.0959 32.8436 72.6474 33.0734C73.1989 33.3109 73.624 33.6441 73.9227 34.073C74.2291 34.4943 74.3823 34.9768 74.3823 35.5207C74.3823 35.5743 74.3631 35.6202 74.3248 35.6585C74.2865 35.6968 74.2367 35.716 74.1755 35.716H72.3372C72.2759 35.716 72.2261 35.6968 72.1878 35.6585C72.1495 35.6202 72.1304 35.5743 72.1304 35.5207C72.1304 35.2679 72.0001 35.0534 71.7397 34.8773C71.4793 34.7011 71.1384 34.613 70.7172 34.613C70.3342 34.613 70.024 34.6858 69.7865 34.8313C69.5414 34.9692 69.4189 35.1568 69.4189 35.3943C69.4189 35.6241 69.5376 35.7964 69.775 35.9113C70.0125 36.0262 70.407 36.1488 70.9584 36.279C71.081 36.3096 71.2227 36.3441 71.3836 36.3824C71.5444 36.4207 71.7167 36.4705 71.9006 36.5317C72.7202 36.7768 73.3636 37.0871 73.8308 37.4624C74.3057 37.8454 74.5431 38.3968 74.5431 39.1168C74.5431 39.9671 74.2061 40.6296 73.5321 41.1045C72.858 41.5794 71.9542 41.8168 70.8206 41.8168ZM81.0002 34.59C81.0002 34.6436 80.981 34.6896 80.9427 34.7279C80.9044 34.7739 80.8546 34.7968 80.7933 34.7968H79.1389C79.0853 34.7968 79.0584 34.8236 79.0584 34.8773V38.5309C79.0584 38.9062 79.135 39.1896 79.2882 39.3811C79.4414 39.5649 79.6904 39.6568 80.035 39.6568H80.6095C80.6631 39.6568 80.7091 39.676 80.7474 39.7143C80.7933 39.7526 80.8163 39.8024 80.8163 39.8636V41.4951C80.8163 41.6253 80.7474 41.6981 80.6095 41.7134C80.127 41.7364 79.7823 41.7479 79.5755 41.7479C78.618 41.7479 77.9057 41.5909 77.4384 41.2768C76.9636 40.9628 76.7223 40.3692 76.7146 39.496V34.8773C76.7146 34.8236 76.684 34.7968 76.6227 34.7968H75.6461C75.5848 34.7968 75.535 34.7739 75.4967 34.7279C75.4584 34.6896 75.4393 34.6436 75.4393 34.59V33.0505C75.4393 32.9968 75.4584 32.9471 75.4967 32.9011C75.535 32.8628 75.5848 32.8436 75.6461 32.8436H76.6227C76.684 32.8436 76.7146 32.813 76.7146 32.7517V30.7066C76.7146 30.653 76.7338 30.6032 76.7721 30.5573C76.8104 30.519 76.8601 30.4998 76.9214 30.4998H78.8516C78.9053 30.4998 78.9512 30.519 78.9895 30.5573C79.0355 30.6032 79.0584 30.653 79.0584 30.7066V32.7517C79.0584 32.813 79.0853 32.8436 79.1389 32.8436H80.7933C80.8546 32.8436 80.9044 32.8628 80.9427 32.9011C80.981 32.9471 81.0002 32.9968 81.0002 33.0505V34.59Z" fill="#252530"/>
<path d="M33.0202 69.5981C33.0202 69.6364 33.0087 69.667 32.9857 69.69C32.9551 69.7206 32.9206 69.7359 32.8823 69.7359H28.9644C28.9261 69.7359 28.907 69.7551 28.907 69.7934V71.9419C28.907 71.9802 28.9261 71.9994 28.9644 71.9994H31.5955C31.6338 71.9994 31.6683 72.0108 31.6989 72.0338C31.7219 72.0645 31.7334 72.0989 31.7334 72.1372V73.0104C31.7334 73.0487 31.7219 73.0832 31.6989 73.1138C31.6683 73.1368 31.6338 73.1483 31.5955 73.1483H28.9644C28.9261 73.1483 28.907 73.1674 28.907 73.2057V75.4232C28.907 75.4615 28.9261 75.4806 28.9644 75.4806H32.8823C32.9206 75.4806 32.9551 75.496 32.9857 75.5266C33.0087 75.5496 33.0202 75.5802 33.0202 75.6185V76.4917C33.0202 76.53 33.0087 76.5606 32.9857 76.5836C32.9551 76.6142 32.9206 76.6296 32.8823 76.6296H27.7121C27.6738 76.6296 27.6432 76.6142 27.6202 76.5836C27.5895 76.5606 27.5742 76.53 27.5742 76.4917V68.7249C27.5742 68.6866 27.5895 68.656 27.6202 68.633C27.6432 68.6023 27.6738 68.587 27.7121 68.587H32.8823C32.9206 68.587 32.9551 68.6023 32.9857 68.633C33.0087 68.656 33.0202 68.6866 33.0202 68.7249V69.5981ZM37.0644 70.6666C37.6849 70.6666 38.1827 70.8504 38.5581 71.2181C38.9257 71.5857 39.1095 72.0874 39.1095 72.7232V76.4917C39.1095 76.53 39.0942 76.5606 39.0636 76.5836C39.0406 76.6142 39.01 76.6296 38.9717 76.6296H37.9146C37.8763 76.6296 37.8419 76.6142 37.8112 76.5836C37.7883 76.5606 37.7768 76.53 37.7768 76.4917V72.9989C37.7768 72.6466 37.6772 72.3593 37.478 72.1372C37.2789 71.9228 37.0146 71.8155 36.6853 71.8155C36.3559 71.8155 36.0878 71.9228 35.881 72.1372C35.6819 72.3517 35.5823 72.6351 35.5823 72.9874V76.4917C35.5823 76.53 35.5708 76.5606 35.5478 76.5836C35.5172 76.6142 35.4827 76.6296 35.4444 76.6296H34.3874C34.3491 76.6296 34.3185 76.6142 34.2955 76.5836C34.2649 76.5606 34.2495 76.53 34.2495 76.4917V70.8964C34.2495 70.8581 34.2649 70.8236 34.2955 70.793C34.3185 70.77 34.3491 70.7585 34.3874 70.7585H35.4444C35.4827 70.7585 35.5172 70.77 35.5478 70.793C35.5708 70.8236 35.5823 70.8581 35.5823 70.8964V71.264C35.5823 71.287 35.59 71.3023 35.6053 71.31C35.6206 71.3176 35.6321 71.31 35.6398 71.287C35.9538 70.8734 36.4287 70.6666 37.0644 70.6666ZM43.6134 71.7006C43.6134 71.7389 43.598 71.7696 43.5674 71.7925C43.5444 71.8232 43.5138 71.8385 43.4755 71.8385H42.3036C42.2653 71.8385 42.2461 71.8576 42.2461 71.8959V74.6649C42.2461 74.956 42.3074 75.1666 42.43 75.2968C42.5602 75.427 42.7632 75.4921 43.0389 75.4921H43.3836C43.4219 75.4921 43.4525 75.5036 43.4755 75.5266C43.5061 75.5572 43.5215 75.5917 43.5215 75.63V76.4917C43.5215 76.5759 43.4755 76.6257 43.3836 76.6411L42.7861 76.6525C42.181 76.6525 41.7291 76.5491 41.4304 76.3423C41.1317 76.1355 40.9785 75.7449 40.9708 75.1704V71.8959C40.9708 71.8576 40.9517 71.8385 40.9134 71.8385H40.2585C40.2202 71.8385 40.1857 71.8232 40.1551 71.7925C40.1321 71.7696 40.1206 71.7389 40.1206 71.7006V70.8964C40.1206 70.8581 40.1321 70.8236 40.1551 70.793C40.1857 70.77 40.2202 70.7585 40.2585 70.7585H40.9134C40.9517 70.7585 40.9708 70.7393 40.9708 70.7011V69.3568C40.9708 69.3185 40.9823 69.284 41.0053 69.2534C41.0359 69.2304 41.0704 69.2189 41.1087 69.2189H42.1083C42.1466 69.2189 42.1772 69.2304 42.2002 69.2534C42.2308 69.284 42.2461 69.3185 42.2461 69.3568V70.7011C42.2461 70.7393 42.2653 70.7585 42.3036 70.7585H43.4755C43.5138 70.7585 43.5444 70.77 43.5674 70.793C43.598 70.8236 43.6134 70.8581 43.6134 70.8964V71.7006ZM49.6338 73.0334C49.6644 73.2249 49.6798 73.4394 49.6798 73.6768L49.6683 74.033C49.6683 74.1249 49.6223 74.1708 49.5304 74.1708H45.9342C45.8959 74.1708 45.8768 74.19 45.8768 74.2283C45.8998 74.4811 45.9342 74.6534 45.9802 74.7453C46.164 75.2968 46.6121 75.5764 47.3244 75.584C47.8453 75.584 48.2589 75.3696 48.5653 74.9406C48.5959 74.8947 48.6342 74.8717 48.6802 74.8717C48.7108 74.8717 48.7376 74.8832 48.7606 74.9062L49.4729 75.4921C49.5419 75.5457 49.5534 75.607 49.5074 75.6759C49.27 76.013 48.9559 76.2734 48.5653 76.4572C48.167 76.6411 47.7266 76.733 47.244 76.733C46.6466 76.733 46.1372 76.5989 45.7159 76.3308C45.3023 76.0628 44.9998 75.6874 44.8083 75.2049C44.6321 74.7913 44.544 74.2168 44.544 73.4815C44.544 73.0372 44.59 72.6772 44.6819 72.4015C44.8351 71.8653 45.1261 71.4402 45.5551 71.1262C45.9763 70.8198 46.4857 70.6666 47.0832 70.6666C48.5921 70.6666 49.4423 71.4555 49.6338 73.0334ZM47.0832 71.8155C46.7997 71.8155 46.5623 71.8883 46.3708 72.0338C46.187 72.1717 46.0568 72.367 45.9802 72.6198C45.9342 72.75 45.9036 72.9185 45.8883 73.1253C45.8729 73.1636 45.8883 73.1828 45.9342 73.1828H48.2666C48.3049 73.1828 48.324 73.1636 48.324 73.1253C48.3087 72.9338 48.2857 72.7883 48.2551 72.6887C48.1861 72.413 48.0521 72.1985 47.8529 72.0453C47.6461 71.8921 47.3895 71.8155 47.0832 71.8155ZM53.6321 70.6896C53.8772 70.6896 54.0917 70.7394 54.2755 70.8389C54.3368 70.8696 54.3597 70.927 54.3444 71.0113L54.1491 72.0453C54.1415 72.1372 54.0878 72.164 53.9883 72.1257C53.8734 72.0874 53.7393 72.0683 53.5861 72.0683C53.4866 72.0683 53.41 72.0721 53.3563 72.0798C53.0346 72.0951 52.7666 72.2062 52.5521 72.413C52.3376 72.6274 52.2304 72.9032 52.2304 73.2402V76.4917C52.2304 76.53 52.2189 76.5606 52.1959 76.5836C52.1653 76.6142 52.1308 76.6296 52.0925 76.6296H51.0355C50.9972 76.6296 50.9666 76.6142 50.9436 76.5836C50.9129 76.5606 50.8976 76.53 50.8976 76.4917V70.8964C50.8976 70.8581 50.9129 70.8236 50.9436 70.793C50.9666 70.77 50.9972 70.7585 51.0355 70.7585H52.0925C52.1308 70.7585 52.1653 70.77 52.1959 70.793C52.2189 70.8236 52.2304 70.8581 52.2304 70.8964V71.4134C52.2304 71.444 52.2342 71.4594 52.2419 71.4594C52.2572 71.467 52.2725 71.4593 52.2878 71.4364C52.6095 70.9385 53.0576 70.6896 53.6321 70.6896ZM60.1925 72.2751C60.3304 72.6657 60.3993 73.1445 60.3993 73.7113C60.3993 74.2551 60.3342 74.7223 60.204 75.113C60.0355 75.6185 59.7674 76.013 59.3998 76.2964C59.0244 76.5798 58.5534 76.7215 57.9866 76.7215C57.4427 76.7215 57.0061 76.5262 56.6768 76.1355C56.6615 76.1202 56.6461 76.1164 56.6308 76.124C56.6155 76.1317 56.6078 76.147 56.6078 76.17V78.6632C56.6078 78.7015 56.5963 78.7321 56.5734 78.7551C56.5427 78.7857 56.5083 78.8011 56.47 78.8011H55.4129C55.3746 78.8011 55.344 78.7857 55.321 78.7551C55.2904 78.7321 55.2751 78.7015 55.2751 78.6632V70.8964C55.2751 70.8581 55.2904 70.8236 55.321 70.793C55.344 70.77 55.3746 70.7585 55.4129 70.7585H56.47C56.5083 70.7585 56.5427 70.77 56.5734 70.793C56.5963 70.8236 56.6078 70.8581 56.6078 70.8964V71.2411C56.6078 71.264 56.6155 71.2794 56.6308 71.287C56.6461 71.2947 56.6615 71.287 56.6768 71.264C57.0138 70.8657 57.4542 70.6666 57.998 70.6666C58.5419 70.6666 59.0015 70.8083 59.3768 71.0917C59.7521 71.3751 60.024 71.7696 60.1925 72.2751ZM58.6989 75.09C58.9287 74.7376 59.0436 74.2704 59.0436 73.6883C59.0436 73.1291 58.9517 72.6887 58.7678 72.367C58.5534 71.9917 58.2278 71.804 57.7912 71.804C57.3929 71.804 57.0942 71.9879 56.8951 72.3555C56.7189 72.6542 56.6308 73.0985 56.6308 73.6883C56.6308 74.2934 56.7266 74.753 56.918 75.067C57.1172 75.404 57.4044 75.5725 57.7798 75.5725C58.1857 75.5725 58.4921 75.4117 58.6989 75.09ZM64.4206 70.6896C64.6657 70.6896 64.8802 70.7394 65.064 70.8389C65.1253 70.8696 65.1483 70.927 65.1329 71.0113L64.9376 72.0453C64.93 72.1372 64.8763 72.164 64.7768 72.1257C64.6619 72.0874 64.5278 72.0683 64.3746 72.0683C64.2751 72.0683 64.1985 72.0721 64.1449 72.0798C63.8232 72.0951 63.5551 72.2062 63.3406 72.413C63.1261 72.6274 63.0189 72.9032 63.0189 73.2402V76.4917C63.0189 76.53 63.0074 76.5606 62.9844 76.5836C62.9538 76.6142 62.9193 76.6296 62.881 76.6296H61.824C61.7857 76.6296 61.7551 76.6142 61.7321 76.5836C61.7015 76.5606 61.6861 76.53 61.6861 76.4917V70.8964C61.6861 70.8581 61.7015 70.8236 61.7321 70.793C61.7551 70.77 61.7857 70.7585 61.824 70.7585H62.881C62.9193 70.7585 62.9538 70.77 62.9844 70.793C63.0074 70.8236 63.0189 70.8581 63.0189 70.8964V71.4134C63.0189 71.444 63.0227 71.4594 63.0304 71.4594C63.0457 71.467 63.061 71.4593 63.0763 71.4364C63.398 70.9385 63.8461 70.6896 64.4206 70.6896ZM66.7644 69.9542C66.527 69.9542 66.3317 69.8776 66.1785 69.7245C66.0253 69.5713 65.9487 69.3759 65.9487 69.1385C65.9487 68.9011 66.0253 68.7057 66.1785 68.5525C66.3317 68.3994 66.527 68.3228 66.7644 68.3228C67.0019 68.3228 67.1972 68.3994 67.3504 68.5525C67.5036 68.7057 67.5802 68.9011 67.5802 69.1385C67.5802 69.3759 67.5036 69.5713 67.3504 69.7245C67.1972 69.8776 67.0019 69.9542 66.7644 69.9542ZM66.2129 76.6296C66.1746 76.6296 66.144 76.6142 66.121 76.5836C66.0904 76.5606 66.0751 76.53 66.0751 76.4917V70.8849C66.0751 70.8466 66.0904 70.8159 66.121 70.793C66.144 70.7623 66.1746 70.747 66.2129 70.747H67.27C67.3083 70.747 67.3427 70.7623 67.3734 70.793C67.3963 70.8159 67.4078 70.8466 67.4078 70.8849V76.4917C67.4078 76.53 67.3963 76.5606 67.3734 76.5836C67.3427 76.6142 67.3083 76.6296 67.27 76.6296H66.2129ZM71.1189 76.6985C70.6363 76.6985 70.2112 76.6257 69.8436 76.4802C69.4836 76.3423 69.204 76.147 69.0049 75.8942C68.8057 75.6491 68.7061 75.3734 68.7061 75.067V74.9636C68.7061 74.9253 68.7176 74.8908 68.7406 74.8602C68.7712 74.8372 68.8057 74.8257 68.844 74.8257H69.8551C69.8934 74.8257 69.9278 74.8372 69.9585 74.8602C69.9815 74.8908 69.9929 74.9253 69.9929 74.9636V74.9866C69.9929 75.1781 70.0963 75.3466 70.3032 75.4921C70.5176 75.63 70.7857 75.6989 71.1074 75.6989C71.4138 75.6989 71.6627 75.6377 71.8542 75.5151C72.0457 75.3849 72.1415 75.224 72.1415 75.0325C72.1415 74.8564 72.061 74.7223 71.9002 74.6304C71.747 74.5462 71.4942 74.4542 71.1419 74.3547L70.7053 74.2168C70.3146 74.1019 69.9853 73.9794 69.7172 73.8491C69.4491 73.7189 69.2232 73.5389 69.0393 73.3091C68.8555 73.087 68.7636 72.7998 68.7636 72.4474C68.7636 71.9113 68.9742 71.4862 69.3955 71.1721C69.8168 70.8504 70.3721 70.6896 71.0615 70.6896C71.5287 70.6896 71.9385 70.7623 72.2908 70.9079C72.6432 71.0611 72.9151 71.2679 73.1066 71.5283C73.298 71.7964 73.3938 72.0989 73.3938 72.4359C73.3938 72.4742 73.3823 72.5087 73.3593 72.5393C73.3287 72.5623 73.2942 72.5738 73.2559 72.5738H72.2793C72.241 72.5738 72.2066 72.5623 72.1759 72.5393C72.1529 72.5087 72.1415 72.4742 72.1415 72.4359C72.1415 72.2368 72.0457 72.0721 71.8542 71.9419C71.6551 71.804 71.387 71.7351 71.05 71.7351C70.7512 71.7351 70.51 71.7887 70.3261 71.8959C70.1346 72.0108 70.0389 72.1679 70.0389 72.367C70.0389 72.5508 70.127 72.6887 70.3032 72.7806C70.487 72.8802 70.7895 72.9874 71.2108 73.1023L71.4636 73.1713C71.8695 73.2938 72.2104 73.4164 72.4861 73.5389C72.7619 73.6691 72.9955 73.8453 73.187 74.0674C73.3785 74.2972 73.4742 74.5921 73.4742 74.9521C73.4742 75.496 73.2598 75.9211 72.8308 76.2274C72.4019 76.5415 71.8312 76.6985 71.1189 76.6985ZM79.5521 73.0334C79.5827 73.2249 79.598 73.4394 79.598 73.6768L79.5866 74.033C79.5866 74.1249 79.5406 74.1708 79.4487 74.1708H75.8525C75.8142 74.1708 75.7951 74.19 75.7951 74.2283C75.8181 74.4811 75.8525 74.6534 75.8985 74.7453C76.0823 75.2968 76.5304 75.5764 77.2427 75.584C77.7636 75.584 78.1772 75.3696 78.4836 74.9406C78.5142 74.8947 78.5525 74.8717 78.5985 74.8717C78.6291 74.8717 78.6559 74.8832 78.6789 74.9062L79.3912 75.4921C79.4602 75.5457 79.4717 75.607 79.4257 75.6759C79.1883 76.013 78.8704 76.2734 78.4721 76.4572C78.0815 76.6411 77.6449 76.733 77.1623 76.733C76.5649 76.733 76.0555 76.5989 75.6342 76.3308C75.2206 76.0628 74.918 75.6874 74.7266 75.2049C74.5504 74.7913 74.4623 74.2168 74.4623 73.4815C74.4623 73.0372 74.5083 72.6772 74.6002 72.4015C74.7534 71.8653 75.0406 71.4402 75.4619 71.1262C75.8908 70.8198 76.404 70.6666 77.0014 70.6666C78.5104 70.6666 79.3606 71.4555 79.5521 73.0334ZM77.0014 71.8155C76.718 71.8155 76.4806 71.8883 76.2891 72.0338C76.1053 72.1717 75.9751 72.367 75.8985 72.6198C75.8525 72.75 75.8219 72.9185 75.8066 73.1253C75.7912 73.1636 75.8066 73.1828 75.8525 73.1828H78.1849C78.2232 73.1828 78.2423 73.1636 78.2423 73.1253C78.227 72.9338 78.204 72.7883 78.1734 72.6887C78.1044 72.413 77.9666 72.1985 77.7598 72.0453C77.5606 71.8921 77.3078 71.8155 77.0014 71.8155Z" fill="white"/>
<path d="M38.0877 92.9217C37.4749 92.9217 36.9387 92.8221 36.4791 92.623C36.0196 92.4315 35.6672 92.1519 35.4221 91.7842C35.1694 91.4242 35.043 91.003 35.043 90.5204V90.2677C35.043 90.2294 35.0583 90.1987 35.0889 90.1757C35.1119 90.1451 35.1425 90.1298 35.1808 90.1298H36.4906C36.5289 90.1298 36.5634 90.1451 36.594 90.1757C36.617 90.1987 36.6285 90.2294 36.6285 90.2677V90.44C36.6285 90.7464 36.7702 91.003 37.0536 91.2098C37.337 91.4242 37.72 91.5315 38.2025 91.5315C38.6085 91.5315 38.9111 91.4472 39.1102 91.2787C39.3094 91.1026 39.4089 90.8881 39.4089 90.6353C39.4089 90.4515 39.3476 90.2983 39.2251 90.1757C39.1025 90.0455 38.934 89.9345 38.7196 89.8426C38.5128 89.743 38.1796 89.6089 37.72 89.4404C37.2068 89.2643 36.7702 89.0843 36.4102 88.9004C36.0579 88.7166 35.763 88.4638 35.5255 88.1421C35.2804 87.8281 35.1579 87.4374 35.1579 86.9702C35.1579 86.5106 35.2766 86.1085 35.514 85.7638C35.7515 85.4191 36.0808 85.1549 36.5021 84.9711C36.9234 84.7872 37.4098 84.6953 37.9613 84.6953C38.5434 84.6953 39.0604 84.7987 39.5123 85.0055C39.9719 85.2123 40.3319 85.5034 40.5923 85.8787C40.8451 86.2464 40.9715 86.6753 40.9715 87.1655V87.3379C40.9715 87.3762 40.96 87.4068 40.937 87.4298C40.9064 87.4604 40.8719 87.4757 40.8336 87.4757H39.5123C39.474 87.4757 39.4434 87.4604 39.4204 87.4298C39.3898 87.4068 39.3745 87.3762 39.3745 87.3379V87.246C39.3745 86.9243 39.2442 86.6485 38.9838 86.4187C38.7157 86.1966 38.3519 86.0855 37.8923 86.0855C37.5323 86.0855 37.2489 86.1621 37.0421 86.3153C36.843 86.4685 36.7434 86.6791 36.7434 86.9472C36.7434 87.1387 36.8047 87.2996 36.9272 87.4298C37.0421 87.56 37.2183 87.6749 37.4557 87.7745C37.6855 87.8817 38.0455 88.0234 38.5357 88.1996C39.0796 88.3987 39.5047 88.5749 39.8111 88.7281C40.1251 88.8813 40.4085 89.1072 40.6613 89.4059C40.9064 89.7123 41.0289 90.1068 41.0289 90.5894C41.0289 91.3094 40.7647 91.8762 40.2362 92.2898C39.7077 92.7111 38.9915 92.9217 38.0877 92.9217ZM45.4868 84.7757C45.9923 84.7757 46.4366 84.8791 46.8196 85.086C47.2025 85.2928 47.5013 85.5838 47.7157 85.9591C47.9225 86.3421 48.0259 86.7787 48.0259 87.2689C48.0259 87.7515 47.9187 88.1766 47.7042 88.5442C47.4821 88.9119 47.1719 89.1991 46.7736 89.4059C46.383 89.6051 45.9311 89.7047 45.4179 89.7047H43.7864C43.7481 89.7047 43.7289 89.7238 43.7289 89.7621V92.6919C43.7289 92.7302 43.7136 92.7608 43.683 92.7838C43.66 92.8145 43.6293 92.8298 43.5911 92.8298H42.2468C42.2085 92.8298 42.174 92.8145 42.1434 92.7838C42.1204 92.7608 42.1089 92.7302 42.1089 92.6919V84.9136C42.1089 84.8753 42.1204 84.8408 42.1434 84.8102C42.174 84.7872 42.2085 84.7757 42.2468 84.7757H45.4868ZM45.2455 88.4064C45.5979 88.4064 45.8813 88.303 46.0957 88.0962C46.3102 87.897 46.4174 87.6328 46.4174 87.3034C46.4174 86.9664 46.3102 86.6945 46.0957 86.4877C45.8813 86.2809 45.5979 86.1774 45.2455 86.1774H43.7864C43.7481 86.1774 43.7289 86.1966 43.7289 86.2349V88.3489C43.7289 88.3872 43.7481 88.4064 43.7864 88.4064H45.2455ZM53.4374 92.8298C53.3608 92.8298 53.3072 92.7953 53.2766 92.7264L51.8404 89.5438C51.8251 89.5132 51.8021 89.4979 51.7715 89.4979H50.703C50.6647 89.4979 50.6455 89.517 50.6455 89.5553V92.6919C50.6455 92.7302 50.6302 92.7608 50.5996 92.7838C50.5766 92.8145 50.5459 92.8298 50.5076 92.8298H49.1634C49.1251 92.8298 49.0906 92.8145 49.06 92.7838C49.037 92.7608 49.0255 92.7302 49.0255 92.6919V84.9251C49.0255 84.8868 49.037 84.8562 49.06 84.8332C49.0906 84.8025 49.1251 84.7872 49.1634 84.7872H52.4494C52.9396 84.7872 53.3685 84.8868 53.7362 85.086C54.1115 85.2851 54.3987 85.5685 54.5979 85.9362C54.8047 86.3038 54.9081 86.7289 54.9081 87.2115C54.9081 87.7323 54.7779 88.1766 54.5174 88.5442C54.257 88.9196 53.8932 89.1838 53.4259 89.337C53.3876 89.3523 53.3762 89.3791 53.3915 89.4174L54.954 92.6689C54.9694 92.6996 54.977 92.7225 54.977 92.7379C54.977 92.7991 54.9349 92.8298 54.8506 92.8298H53.4374ZM50.703 86.1774C50.6647 86.1774 50.6455 86.1966 50.6455 86.2349V88.1996C50.6455 88.2379 50.6647 88.257 50.703 88.257H52.2081C52.5298 88.257 52.7902 88.1613 52.9893 87.9698C53.1962 87.7783 53.2996 87.5294 53.2996 87.223C53.2996 86.9166 53.1962 86.6638 52.9893 86.4647C52.7902 86.2732 52.5298 86.1774 52.2081 86.1774H50.703ZM56.2179 92.8298C56.1796 92.8298 56.1489 92.8145 56.1259 92.7838C56.0953 92.7608 56.08 92.7302 56.08 92.6919V84.9251C56.08 84.8868 56.0953 84.8562 56.1259 84.8332C56.1489 84.8025 56.1796 84.7872 56.2179 84.7872H57.5621C57.6004 84.7872 57.6349 84.8025 57.6655 84.8332C57.6885 84.8562 57.7 84.8868 57.7 84.9251V92.6919C57.7 92.7302 57.6885 92.7608 57.6655 92.7838C57.6349 92.8145 57.6004 92.8298 57.5621 92.8298H56.2179ZM63.7204 84.9251C63.7204 84.8868 63.7357 84.8562 63.7664 84.8332C63.7894 84.8025 63.82 84.7872 63.8583 84.7872H65.2025C65.2408 84.7872 65.2753 84.8025 65.3059 84.8332C65.3289 84.8562 65.3404 84.8868 65.3404 84.9251V92.6919C65.3404 92.7302 65.3289 92.7608 65.3059 92.7838C65.2753 92.8145 65.2408 92.8298 65.2025 92.8298H63.9042C63.8276 92.8298 63.774 92.7991 63.7434 92.7379L60.7676 87.8204C60.7523 87.7974 60.737 87.7898 60.7217 87.7974C60.7064 87.7974 60.6987 87.8128 60.6987 87.8434L60.7217 92.6919C60.7217 92.7302 60.7102 92.7608 60.6872 92.7838C60.6566 92.8145 60.6221 92.8298 60.5838 92.8298H59.2396C59.2013 92.8298 59.1706 92.8145 59.1476 92.7838C59.117 92.7608 59.1017 92.7302 59.1017 92.6919V84.9251C59.1017 84.8868 59.117 84.8562 59.1476 84.8332C59.1706 84.8025 59.2013 84.7872 59.2396 84.7872H60.5379C60.6145 84.7872 60.6681 84.8179 60.6987 84.8791L63.663 89.7736C63.6783 89.7966 63.6936 89.8043 63.7089 89.7966C63.7242 89.7966 63.7319 89.7813 63.7319 89.7506L63.7204 84.9251ZM69.5685 92.9217C68.9787 92.9217 68.4579 92.803 68.0059 92.5655C67.554 92.3281 67.2055 91.9987 66.9604 91.5774C66.7076 91.1485 66.5813 90.6545 66.5813 90.0953V87.5217C66.5813 86.9625 66.7076 86.4685 66.9604 86.0396C67.2055 85.6106 67.554 85.2774 68.0059 85.04C68.4579 84.8102 68.9787 84.6953 69.5685 84.6953C70.1506 84.6953 70.6677 84.8102 71.1196 85.04C71.5638 85.2698 71.9123 85.5838 72.1651 85.9821C72.4102 86.3728 72.5328 86.8094 72.5328 87.2919V87.3723C72.5328 87.4106 72.5213 87.4413 72.4983 87.4643C72.4676 87.4949 72.4332 87.5102 72.3949 87.5102H71.0506C71.0123 87.5102 70.9817 87.4949 70.9587 87.4643C70.9281 87.4413 70.9128 87.4106 70.9128 87.3723V87.3379C70.9128 86.9855 70.7902 86.6906 70.5451 86.4532C70.3 86.2081 69.9745 86.0855 69.5685 86.0855C69.1549 86.0855 68.8255 86.2119 68.5804 86.4647C68.3276 86.7251 68.2013 87.0621 68.2013 87.4757V90.1413C68.2013 90.5549 68.3353 90.8881 68.6034 91.1408C68.8715 91.4013 69.2123 91.5315 69.6259 91.5315C70.0242 91.5315 70.3421 91.4242 70.5796 91.2098C70.817 91.003 70.9357 90.7119 70.9357 90.3366V89.8196C70.9357 89.7813 70.9166 89.7621 70.8783 89.7621H69.5915C69.5532 89.7621 69.5225 89.7468 69.4996 89.7162C69.4689 89.6932 69.4536 89.6625 69.4536 89.6242V88.5672C69.4536 88.5289 69.4689 88.4983 69.4996 88.4753C69.5225 88.4447 69.5532 88.4294 69.5915 88.4294H72.3949C72.4332 88.4294 72.4676 88.4447 72.4983 88.4753C72.5213 88.4983 72.5328 88.5289 72.5328 88.5672V90.0838C72.5328 90.666 72.4102 91.1715 72.1651 91.6004C71.92 92.0294 71.5753 92.3587 71.1311 92.5885C70.6791 92.8106 70.1583 92.9217 69.5685 92.9217ZM43.2923 102.171C43.277 102.186 43.2732 102.201 43.2808 102.217C43.2885 102.232 43.3038 102.24 43.3268 102.24H46.4404C46.4787 102.24 46.5132 102.251 46.5438 102.274C46.5668 102.305 46.5783 102.339 46.5783 102.377V103.492C46.5783 103.53 46.5668 103.561 46.5438 103.584C46.5132 103.614 46.4787 103.63 46.4404 103.63H41.2702C41.2319 103.63 41.1974 103.614 41.1668 103.584C41.1438 103.561 41.1323 103.53 41.1323 103.492V102.435C41.1323 102.366 41.1553 102.309 41.2013 102.263C41.5766 101.895 41.9596 101.497 42.3502 101.068C42.7408 100.631 42.9859 100.359 43.0855 100.252C43.3 99.9991 43.5183 99.7579 43.7404 99.5281C44.4374 98.7545 44.7859 98.18 44.7859 97.8047C44.7859 97.5366 44.6902 97.3145 44.4987 97.1383C44.3072 96.9698 44.0583 96.8855 43.7519 96.8855C43.4455 96.8855 43.1966 96.9698 43.0051 97.1383C42.8136 97.3145 42.7179 97.5442 42.7179 97.8277V98.1149C42.7179 98.1532 42.7025 98.1877 42.6719 98.2183C42.6489 98.2413 42.6183 98.2528 42.58 98.2528H41.2242C41.1859 98.2528 41.1553 98.2413 41.1323 98.2183C41.1017 98.1877 41.0864 98.1532 41.0864 98.1149V97.5749C41.1093 97.1613 41.2396 96.7936 41.477 96.4719C41.7145 96.1579 42.0285 95.9166 42.4191 95.7481C42.8174 95.5796 43.2617 95.4953 43.7519 95.4953C44.2957 95.4953 44.7706 95.5949 45.1766 95.794C45.5749 96.0008 45.8851 96.2766 46.1072 96.6213C46.3217 96.966 46.4289 97.3489 46.4289 97.7702C46.4289 98.0919 46.3485 98.4213 46.1877 98.7583C46.0268 99.0953 45.7855 99.4591 45.4638 99.8498C45.2264 100.149 44.9698 100.443 44.694 100.734C44.4183 101.026 44.0085 101.447 43.4647 101.998L43.2923 102.171ZM50.3123 103.756C49.4698 103.756 48.8034 103.519 48.3132 103.044C47.823 102.577 47.5779 101.937 47.5779 101.125V98.0919C47.5779 97.2953 47.823 96.6634 48.3132 96.1962C48.8034 95.7289 49.4698 95.4953 50.3123 95.4953C51.1549 95.4953 51.8251 95.7289 52.323 96.1962C52.8132 96.6634 53.0583 97.2953 53.0583 98.0919V101.125C53.0583 101.937 52.8132 102.577 52.323 103.044C51.8251 103.519 51.1549 103.756 50.3123 103.756ZM50.3123 102.366C50.657 102.366 50.9328 102.259 51.1396 102.044C51.3387 101.837 51.4383 101.558 51.4383 101.206V98.046C51.4383 97.6936 51.3387 97.414 51.1396 97.2072C50.9328 96.9928 50.657 96.8855 50.3123 96.8855C49.9753 96.8855 49.7072 96.9928 49.5081 97.2072C49.3013 97.414 49.1979 97.6936 49.1979 98.046V101.206C49.1979 101.558 49.3013 101.837 49.5081 102.044C49.7072 102.259 49.9753 102.366 50.3123 102.366ZM56.2753 102.171C56.26 102.186 56.2562 102.201 56.2638 102.217C56.2715 102.232 56.2868 102.24 56.3098 102.24H59.4234C59.4617 102.24 59.4962 102.251 59.5268 102.274C59.5498 102.305 59.5613 102.339 59.5613 102.377V103.492C59.5613 103.53 59.5498 103.561 59.5268 103.584C59.4962 103.614 59.4617 103.63 59.4234 103.63H54.2532C54.2149 103.63 54.1842 103.614 54.1613 103.584C54.1306 103.561 54.1153 103.53 54.1153 103.492V102.435C54.1153 102.366 54.1383 102.309 54.1842 102.263C54.5596 101.895 54.9425 101.497 55.3332 101.068C55.7238 100.631 55.9689 100.359 56.0685 100.252C56.283 99.9991 56.5013 99.7579 56.7234 99.5281C57.4204 98.7545 57.7689 98.18 57.7689 97.8047C57.7689 97.5366 57.6732 97.3145 57.4817 97.1383C57.2902 96.9698 57.0413 96.8855 56.7349 96.8855C56.4285 96.8855 56.1796 96.9698 55.9881 97.1383C55.7966 97.3145 55.7008 97.5442 55.7008 97.8277V98.1149C55.7008 98.1532 55.6894 98.1877 55.6664 98.2183C55.6357 98.2413 55.6013 98.2528 55.563 98.2528H54.2072C54.1689 98.2528 54.1383 98.2413 54.1153 98.2183C54.0847 98.1877 54.0694 98.1532 54.0694 98.1149V97.5749C54.0923 97.1613 54.2225 96.7936 54.46 96.4719C54.6974 96.1579 55.0153 95.9166 55.4136 95.7481C55.8042 95.5796 56.2447 95.4953 56.7349 95.4953C57.2787 95.4953 57.7536 95.5949 58.1596 95.794C58.5579 96.0008 58.8681 96.2766 59.0902 96.6213C59.3047 96.966 59.4119 97.3489 59.4119 97.7702C59.4119 98.0919 59.3315 98.4213 59.1706 98.7583C59.0098 99.0953 58.7685 99.4591 58.4468 99.8498C58.2094 100.149 57.9528 100.443 57.677 100.734C57.4013 101.026 56.9915 101.447 56.4477 101.998L56.2753 102.171ZM66.3055 100.126C66.3438 100.126 66.3783 100.137 66.4089 100.16C66.4319 100.191 66.4434 100.225 66.4434 100.263V101.424C66.4434 101.462 66.4319 101.497 66.4089 101.527C66.3783 101.55 66.3438 101.562 66.3055 101.562H65.8115C65.7732 101.562 65.754 101.581 65.754 101.619V103.492C65.754 103.53 65.7425 103.561 65.7196 103.584C65.6889 103.614 65.6545 103.63 65.6162 103.63H64.2719C64.2336 103.63 64.203 103.614 64.18 103.584C64.1494 103.561 64.134 103.53 64.134 103.492V101.619C64.134 101.581 64.1149 101.562 64.0766 101.562H60.5494C60.5111 101.562 60.4804 101.55 60.4574 101.527C60.4268 101.497 60.4115 101.462 60.4115 101.424V100.505C60.4115 100.459 60.423 100.401 60.4459 100.332L62.514 95.6906C62.5447 95.6217 62.5983 95.5872 62.6749 95.5872H64.1111C64.1647 95.5872 64.203 95.6026 64.2259 95.6332C64.2413 95.6562 64.2374 95.6945 64.2145 95.7481L62.2957 100.057C62.2881 100.072 62.2881 100.087 62.2957 100.103C62.3034 100.118 62.3149 100.126 62.3302 100.126H64.0766C64.1149 100.126 64.134 100.106 64.134 100.068V98.6434C64.134 98.6051 64.1494 98.5745 64.18 98.5515C64.203 98.5209 64.2336 98.5055 64.2719 98.5055H65.6162C65.6545 98.5055 65.6889 98.5209 65.7196 98.5515C65.7425 98.5745 65.754 98.6051 65.754 98.6434V100.068C65.754 100.106 65.7732 100.126 65.8115 100.126H66.3055Z" fill="#252530"/>
</g>
<defs>
<clipPath id="clip0_5737_7124">
<rect width="108" height="120" fill="white"/>
</clipPath>
</defs>
</svg>
